<?xml version="1.0" encoding="UTF-8"?>
<svg width="24" height="24" version="1.1" viewBox="0 0 24 24" xmlns="http://www.w3.org/2000/svg">
 <rect width="24" height="24" fill="#192e46"/>
 <path d="m12 11.351c0.93151 0.28393 1.6608 1.0138 1.9441 1.9454 0.28522-0.93151 1.0145-1.6608 1.9454-1.9447-0.93087-0.28458-1.6601-1.0132-1.9454-1.9447-0.28328 0.93087-1.0125 1.6601-1.9441 1.9441zm5.1865 6.48e-4c0.62101 0.18993 1.1065 0.67546 1.2965 1.2971 0.18864-0.62166 0.67546-1.1078 1.2958-1.2971-0.62036-0.18928-1.1065-0.67546-1.2965-1.2965-0.18993 0.62101-0.67546 1.1072-1.2958 1.2965zm-0.64824-5.8341c-0.28328 0.93151-1.0132 1.6608-1.9434 1.9454 0.93216 0.28522 1.6601 1.0138 1.9454 1.946 0.28328-0.93216 1.0132-1.6614 1.9421-1.946-0.92892-0.28328-1.6588-1.0138-1.9441-1.9454zm-4.5383 14.261c-4.2894 0-7.7788-3.4894-7.7788-7.7788 0-4.2894 3.4894-7.7788 7.7788-7.7788 1.2278 0 2.3531 0.32217 3.481 0.76427-1.911 0.32671-6.074 2.1171-6.074 7.0146 0 4.8319 3.8356 6.6172 6.074 7.0146-0.97235 0.54841-2.2533 0.76427-3.481 0.76427z" fill="#fff" stroke-width=".64824"/>
</svg>
